<svg xmlns="http://www.w3.org/2000/svg" viewBox="0 0 1200 630">
  <defs>
    <linearGradient id="bg" x1="0" y1="0" x2="1" y2="1">
      <stop offset="0%" stop-color="#e9f2ff"/>
      <stop offset="100%" stop-color="#f6f0ff"/>
    </linearGradient>
    <linearGradient id="accent" x1="0" y1="0" x2="1" y2="1">
      <stop offset="0%" stop-color="#1e88e5"/>
      <stop offset="100%" stop-color="#7c4dff"/>
    </linearGradient>
  </defs>
  <rect width="1200" height="630" rx="28" fill="url(#bg)"/>
  <path d="M0,480 C200,380 320,420 540,480 C760,540 920,470 1200,420 L1200,630 L0,630 Z" fill="#dfe8ff"/>
  <path d="M0,520 C260,430 400,490 620,520 C840,550 980,500 1200,470 L1200,630 L0,630 Z" fill="#e9dfff"/>
  <g transform="translate(920,200)">
    <circle r="54" fill="#fff" stroke="rgba(0,0,0,0.08)" stroke-width="2"/>
    <g transform="rotate(-20)">
      <polygon points="0,-34 10,10 -34,0" fill="rgba(0,0,0,0.1)"/>
      <polygon points="0,-34 9,9 -34,0" fill="#111"/>
      <polygon points="0,-34 -9,-9 34,0" fill="#ff5252"/>
    </g>
    <circle r="4" fill="#111"/>
  </g>
  <rect x="140" y="160" width="520" height="280" rx="18" fill="#fff" stroke="rgba(0,0,0,0.06)"/>
  <rect x="160" y="190" width="200" height="16" rx="8" fill="url(#accent)"/>
  <rect x="160" y="222" width="440" height="12" rx="6" fill="#e9ecef"/>
  <rect x="160" y="244" width="380" height="12" rx="6" fill="#f0f2f5"/>
  <rect x="160" y="286" width="160" height="38" rx="10" fill="url(#accent)"/>
  <rect x="330" y="286" width="160" height="38" rx="10" fill="#f0f2ff"/>
</svg>
